<?xml version="1.0" encoding="UTF-8"?>
<svg width="1032px" height="355px" viewBox="0 0 1032 355" version="1.1" xmlns="http://www.w3.org/2000/svg" xmlns:xlink="http://www.w3.org/1999/xlink">
    <!-- Generator: Sketch 52.6 (67491) - http://www.bohemiancoding.com/sketch -->
    <title>GET</title>
    <desc>Created with Sketch.</desc>
    <g id="Page-1" stroke="none" stroke-width="1" fill="none" fill-rule="evenodd">
        <g id="Desktop-HD" transform="translate(-14.000000, -5789.000000)" fill="#F7F6F6">
            <path d="M260,5962.5 L362.5,5962.5 L362.5,6110.5 C341.83323,6124.83341 317.83347,6135.8333 290.5,6143.5 C263.16653,6151.1667 236.333465,6155 210,6155 C172.66648,6155 139.166815,6147.25008 109.5,6131.75 C79.833185,6116.24992 56.5834175,6094.58347 39.75,6066.75 C22.9165825,6038.91653 14.5,6007.33351 14.5,5972 C14.5,5936.66649 22.9165825,5905.08347 39.75,5877.25 C56.5834175,5849.41653 80.0831825,5827.75008 110.25,5812.25 C140.416818,5796.74992 174.49981,5789 212.5,5789 C246.833505,5789 277.583197,5794.74994 304.75,5806.25 C331.916803,5817.75006 354.49991,5834.49989 372.5,5856.5 L297,5923 C274.99989,5897.3332 248.833485,5884.5 218.5,5884.5 C192.49987,5884.5 171.83341,5892.33325 156.5,5908 C141.16659,5923.66675 133.5,5944.99986 133.5,5972 C133.5,5998.33346 141.083258,6019.49992 156.25,6035.5 C171.416742,6051.50008 191.66654,6059.5 217,6059.5 C232.000075,6059.5 246.333265,6056.66669 260,6051 L260,5962.5 Z M704,6058 L704,6147 L413,6147 L413,5797 L697.5,5797 L697.5,5886 L529,5886 L529,5927 L677,5927 L677,6012 L529,6012 L529,6058 L704,6058 Z M825.5,5888.5 L723,5888.5 L723,5797 L1046,5797 L1046,5888.5 L943.5,5888.5 L943.5,6147 L825.5,6147 L825.5,5888.5 Z" id="GET"></path>
        </g>
    </g>
</svg>