<?xml version="1.0" encoding="UTF-8"?>
<svg width="80px" height="64px" viewBox="0 0 80 64" version="1.1" xmlns="http://www.w3.org/2000/svg" xmlns:xlink="http://www.w3.org/1999/xlink">
    <!-- Generator: sketchtool 52.6 (67491) - http://www.bohemiancoding.com/sketch -->
    <title>A3DF98FA-A457-4790-8424-FDF2F9500F70</title>
    <desc>Created with sketchtool.</desc>
    <defs>
        <linearGradient x1="0%" y1="0%" x2="101.999998%" y2="100.999999%" id="linearGradient-1">
            <stop stop-color="#8D3A8A" offset="0%"></stop>
            <stop stop-color="#2B275C" offset="100%"></stop>
        </linearGradient>
    </defs>
    <g id="Page-1" stroke="none" stroke-width="1" fill="none" fill-rule="evenodd">
        <g id="Desktop-HD" transform="translate(-32.000000, -1047.000000)" fill="url(#linearGradient-1)">
            <g id="logo-copy" transform="translate(32.000000, 1047.000000)">
                <path d="M74.0084295,27.0524503 L52.4744077,15 L51.3125,19.3614373 C51.0789867,20.2316932 51.4692148,21.1482247 52.2613913,21.5901049 L68.0207321,30.4127133 L44.8368013,43.3819477 L41.2619988,57.3561923 C41.0283976,58.2252829 40.2335456,58.8298803 39.325486,58.8291843 L33.4733445,58.8291843 C31.6591736,58.822382 30.0683689,60.0276874 29.600319,61.7636606 L29,64 L42.512986,64 C44.325562,64 46.4673451,62.7916862 47.0792831,61.054016 L50.6385936,47.2447158 L74.0006835,33.7729764 L80,30.4165492 L74.0084295,27.0524503 Z" id="Path"></path>
                <path d="M45.8940108,0 L29,64 L32.0375168,63.9999713 C33.850012,64.006786 35.4393474,62.7992804 35.906965,61.0601383 L52,0 L45.8940108,0 Z" id="Path"></path>
                <path d="M34.1479153,1.63227313e-05 C32.4969134,-0.0048603871 31.0508399,1.08347562 30.6296879,2.64788542 L27.2557078,16.049275 L5.44269781,28.1163868 L0,31.1469557 L5.44973426,34.1671814 L25.0075604,45 L26.0630287,41.0799125 C26.2770822,40.2984471 25.9238236,39.4741373 25.2045812,39.076772 L10.906505,31.1469557 L31.885695,19.5280509 L35.2948574,5.97151278 C35.505977,5.18966229 36.2286794,4.64574595 37.0539711,4.64757823 L42.9681114,4.6751602 C44.6416549,4.68518721 46.1045216,3.57082875 46.5074482,1.97902265 L47,0 L34.1479153,1.63227313e-05 Z" id="Path"></path>
            </g>
        </g>
    </g>
</svg>